<svg width="147" height="65" viewBox="0 0 147 65" fill="none" xmlns="http://www.w3.org/2000/svg">
<path d="M99.2706 1.19734C99.2781 1.14374 99.3266 1.11085 99.3798 1.10084C99.5563 1.06766 98.6031 0.793404 99.5402 0.927125C99.5427 0.927482 99.5454 0.925855 99.546 0.923401V0.923401C99.5465 0.920959 99.549 0.919297 99.5515 0.919634C100.566 1.05686 100.954 1.13588 101.066 1.18651C101.076 1.19135 101.087 1.19547 101.098 1.19758V1.19758C101.154 1.20779 101.191 1.26038 101.182 1.31598L101.035 2.18855C100.976 2.53058 100.911 2.88895 100.842 3.25886C100.722 3.90393 100.589 4.58777 100.445 5.29207C100.311 5.95369 100.166 6.63388 100.018 7.31746C99.8713 7.99092 99.7202 8.66806 99.5684 9.33504C99.4122 10.0213 99.2553 10.6976 99.1026 11.3477C98.937 12.0526 98.7768 12.7285 98.627 13.3546C98.5055 13.8624 98.3901 14.3391 98.2852 14.7735C98.269 14.8409 98.2526 14.9083 98.2364 14.9757C98.025 15.8495 97.8265 16.6773 97.5909 17.6456C97.4997 18.02 97.4034 18.416 97.2979 18.8438C96.9581 20.2177 96.5321 21.9243 95.8917 24.3194C95.5006 25.7774 95.0292 27.491 94.4297 29.5343C94.4075 29.6123 94.3847 29.6906 94.3624 29.7686C94.12 30.6161 93.8718 31.4624 93.6179 32.3071C93.5519 32.5267 93.6984 32.7539 93.9258 32.7833V32.7833C96.3887 33.1016 98.8488 33.4421 101.306 33.7969C103.763 34.1518 106.218 34.522 108.67 34.8995C109.772 35.0692 110.874 35.2415 111.976 35.4141C112.487 35.4943 112.975 35.1711 113.1 34.6686C113.176 34.3621 113.251 34.0553 113.325 33.7481C113.372 33.5529 113.412 33.3593 113.45 33.1544C113.488 32.9513 113.524 32.7443 113.562 32.5352C113.599 32.3264 113.638 32.115 113.68 31.9024C113.722 31.6899 113.767 31.4753 113.819 31.2598C113.872 31.0443 113.931 30.8277 114.003 30.6094C114.073 30.397 114.165 30.1589 114.268 29.9522V29.9522C114.316 29.8565 114.42 29.8047 114.527 29.8174C116.145 30.0098 115.246 30.2885 115.323 30.4121C115.325 30.4147 115.328 30.4167 115.33 30.418C115.35 30.4266 115.362 30.4324 115.365 30.4361C115.366 30.4374 115.367 30.4409 115.368 30.4418V30.4418C115.369 30.4422 115.369 30.4431 115.369 30.4439C115.337 30.6392 115.299 30.8237 115.261 31.0069C115.222 31.191 115.181 31.371 115.14 31.5518C115.098 31.7321 115.057 31.9119 115.015 32.0909C114.972 32.2703 114.929 32.4475 114.887 32.6261C114.844 32.8046 114.802 32.9811 114.763 33.1544C114.575 33.9821 114.379 34.8114 114.181 35.6358V35.6358C114.165 35.6996 114.207 35.7627 114.272 35.7729C114.329 35.7819 114.386 35.7909 114.443 35.7999C114.97 35.8827 115.497 35.9659 116.023 36.0489C117.205 36.2353 118.388 36.4201 119.57 36.6058C119.863 36.6518 120.151 36.4892 120.26 36.213V36.213C120.639 35.2443 120.983 34.2444 121.32 33.2462C121.665 32.2219 121.991 31.2184 122.31 30.2257C122.644 29.1826 122.965 28.165 123.271 27.1886C123.548 26.3047 123.813 25.4531 124.064 24.6475C124.117 24.4765 124.167 24.3166 124.22 24.1466C124.414 23.5219 124.599 22.9298 124.776 22.3643C124.851 22.1204 124.926 21.8799 125.001 21.6385C125.105 21.3024 124.96 20.8818 125.123 20.57C125.225 20.3757 125.433 20.1831 125.679 20.0202C125.753 19.9715 125.81 19.8784 125.826 19.7915V19.7915C125.861 19.5967 126.061 19.4866 126.24 19.5714C126.252 19.5773 126.265 19.5833 126.277 19.5893C126.365 19.6329 126.466 19.6444 126.561 19.6213C127.111 19.4881 127.487 19.6529 126.976 20.4152C126.894 20.5386 126.829 20.6741 126.799 20.8194C126.656 21.5001 126.513 22.1813 126.37 22.8614C126.212 23.6148 126.053 24.3681 125.896 25.1212C125.738 25.8746 125.581 26.6285 125.425 27.3819C125.363 27.6814 125.301 27.9808 125.239 28.2803C125.177 28.5479 125.114 28.8178 125.051 29.0919C125.009 29.2705 124.967 29.4516 124.926 29.6348C124.765 30.3448 124.601 31.0917 124.434 31.8887C124.284 32.5991 124.132 33.348 123.976 34.1485C123.816 34.9659 123.636 35.8367 123.445 36.7598C123.417 36.8998 123.387 37.0412 123.358 37.1838C123.356 37.1933 123.363 37.2027 123.372 37.2042V37.2042C125.822 37.5857 128.269 37.9613 130.721 38.3243C131.478 38.4364 132.235 38.5359 132.999 38.6339C133.762 38.7317 134.528 38.827 135.295 38.9278C136.062 39.0287 136.832 39.1354 137.602 39.255C138.371 39.3746 139.142 39.5075 139.91 39.6622C139.952 39.6707 139.995 39.679 140.037 39.6876C140.763 39.8361 141.489 40.0046 142.209 40.2012C142.966 40.4075 143.74 40.6524 144.474 40.9307C144.682 41.0094 144.925 41.1144 145.144 41.2305C145.366 41.3486 145.593 41.4901 145.807 41.671C146.021 41.8517 146.224 42.0764 146.379 42.3428C146.535 42.6082 146.634 42.9085 146.678 43.1983C146.722 43.4878 146.717 43.7688 146.688 44.0284C146.66 44.2827 146.601 44.5541 146.54 44.7706C146.4 45.2831 146.181 45.8375 145.931 46.3184C145.677 46.81 145.375 47.2734 145.039 47.7042C144.703 48.1351 144.333 48.5339 143.941 48.9034C143.55 49.2728 143.135 49.613 142.706 49.9278C142.277 50.2426 141.833 50.5324 141.379 50.8009C140.929 51.0675 140.453 51.3209 139.99 51.546C139.806 51.6356 139.614 51.7258 139.416 51.8126C139.304 51.8617 139.193 51.9091 139.078 51.9552C138.763 52.0812 138.434 52.1968 138.08 52.2833C137.868 52.3346 137.648 52.3751 137.412 52.3946C137.254 52.4086 137.09 52.4124 136.92 52.4005C136.5 52.3758 136.017 52.2229 135.649 51.9161C135.276 51.6107 135.051 51.2216 134.903 50.8555C134.757 50.4937 134.673 50.0927 134.627 49.7696L134.592 49.4942C134.56 49.2141 134.54 48.9236 134.533 48.6514V48.6514C134.529 48.4886 134.306 48.4246 134.219 48.5622C134.136 48.6938 134.052 48.8226 133.968 48.9483C133.692 49.3584 133.414 49.7401 133.134 50.0958C132.825 50.4879 132.512 50.8487 132.195 51.1798C131.852 51.5391 131.483 51.8828 131.137 52.169C131.135 52.1702 131.133 52.1718 131.132 52.1729C130.97 52.3076 130.799 52.4456 130.629 52.5762C130.451 52.7128 130.269 52.8445 130.082 52.9688C129.89 53.0964 129.691 53.2171 129.481 53.3272C129.267 53.4394 129.041 53.5417 128.791 53.6221C128.538 53.7025 128.256 53.7645 127.937 53.7589C127.72 53.7524 127.514 53.7232 127.26 53.6221C127.141 53.5741 127.04 53.5173 126.958 53.463L126.848 53.3878C126.585 53.1907 126.301 52.8483 126.15 52.544C125.988 52.2364 125.874 51.904 125.791 51.5596C125.748 51.3786 125.712 51.1944 125.684 51.0059C125.664 50.876 125.648 50.7433 125.634 50.6094V50.6094C125.608 50.3627 125.291 50.2629 125.137 50.4575C125.113 50.4883 125.088 50.5191 125.064 50.5499C124.879 50.7798 124.686 51.0133 124.47 51.2442C124.25 51.4739 124.022 51.7048 123.68 51.92C123.411 52.1295 122.607 52.3578 122.109 51.9083C121.681 51.5368 121.582 51.1842 121.463 50.8673C121.356 50.54 121.29 50.2217 121.241 49.9327C121.241 49.9308 121.241 49.9287 121.24 49.9268C121.087 49.0187 121.009 48.0767 120.989 47.1973C120.967 46.2481 121.007 45.3354 121.076 44.4786C121.155 43.5059 121.272 42.6047 121.394 41.7979C121.554 40.739 121.72 39.8415 121.845 39.1544C121.85 39.1258 121.855 39.0972 121.86 39.0694V39.0694C121.924 38.7205 121.69 38.3868 121.339 38.3323C121.161 38.3046 120.982 38.2768 120.804 38.2492C120.73 38.2377 120.658 38.2791 120.631 38.3487V38.3487C120.412 38.8877 120.204 39.3959 120.004 39.8809C119.94 40.0354 119.878 40.1878 119.815 40.338C119.407 41.3273 119.03 42.2293 118.657 43.1202C118.217 44.172 117.782 45.209 117.303 46.3565C117.037 46.9934 116.756 47.6648 116.452 48.3907C116.285 48.7904 116.115 49.1923 115.944 49.5938C115.485 50.6747 115.014 51.7567 114.544 52.8126C114.053 53.9159 113.561 54.9931 113.085 56.0069C113.009 56.169 112.939 56.3356 112.865 56.5098C112.792 56.6842 112.717 56.8609 112.643 57.0352C112.566 57.2142 112.488 57.3924 112.406 57.5684C112.322 57.7504 112.237 57.9281 112.139 58.1085C112.096 58.1871 112.05 58.2681 112 58.3487V58.3487C111.865 58.5635 111.728 58.8742 111.475 58.8957C111.237 58.9159 110.906 58.8676 110.684 58.775C110.427 58.6678 110.422 58.3015 110.328 58.0391V58.0391C110.188 57.6071 110.074 57.1414 109.992 56.6827C109.887 56.0969 109.825 55.4932 109.796 54.8819C109.79 54.7655 109.786 54.6493 109.782 54.5323C109.769 54.0543 109.775 53.5725 109.795 53.0909C109.82 52.4986 109.867 51.9058 109.929 51.3194C109.991 50.7279 110.067 50.1425 110.152 49.5675C110.239 48.9787 110.336 48.3959 110.431 47.836L110.444 47.7569V47.7569C110.458 47.6763 110.337 47.644 110.309 47.7207C110.297 47.7517 110.286 47.7826 110.274 47.8136C110.233 47.9245 110.191 48.0351 110.149 48.1456C109.794 49.0855 109.414 50.0182 109.031 50.8927C108.933 51.1198 108.845 51.3518 108.755 51.5919C108.664 51.837 108.576 52.0806 108.489 52.3214C108.399 52.5712 108.311 52.8169 108.223 53.0577C108.13 53.3108 108.039 53.5575 107.945 53.7989V53.7989C107.787 54.2065 107.573 54.809 107.141 54.8777C106.584 54.9662 105.892 54.9277 106.251 54.5112C106.275 54.4838 106.291 54.4475 106.291 54.4112V54.4112C106.291 54.2309 106.317 54.0304 106.348 53.8721C106.381 53.6989 106.425 53.539 106.472 53.3868C106.521 53.2287 106.573 53.0787 106.628 52.9346C106.684 52.7865 106.742 52.643 106.8 52.504C106.829 52.4331 106.859 52.3634 106.888 52.294C106.889 52.2914 106.891 52.2888 106.892 52.2862C106.909 52.2456 106.926 52.2044 106.942 52.1641C106.952 52.139 106.961 52.1141 106.971 52.0889C107.023 51.9504 107.071 51.8206 107.114 51.6866C107.18 51.5066 107.22 51.4158 107.272 51.2843C107.305 51.2004 107.337 51.1177 107.368 51.0351C107.377 51.0111 107.347 50.9904 107.328 51.0079V51.0079C107.209 51.1183 107.092 51.2318 106.978 51.3477C106.863 51.4636 106.75 51.5827 106.639 51.7032C106.527 51.8237 106.417 51.946 106.309 52.0704C106.2 52.1954 106.095 52.3203 105.987 52.4493C105.765 52.7015 105.568 52.8908 105.361 53.0938C105.154 53.2951 104.945 53.4912 104.732 53.6856C104.52 53.8801 104.304 54.0717 104.082 54.2598C103.883 54.4281 103.685 54.5907 103.468 54.7517C103.413 54.7918 103.353 54.8236 103.297 54.8599C103.119 54.9738 103.051 55.1263 102.687 55.1964C102.37 55.2572 102.051 55.0844 101.901 54.7993C101.633 54.2893 101.784 54.132 101.909 53.9914C102.031 53.8544 102.062 53.657 102.144 53.4935C102.361 53.0661 102.594 52.6392 102.834 52.2276C103.123 51.7326 103.427 51.2481 103.742 50.7725C103.824 50.6497 103.905 50.527 103.988 50.4053C104.223 50.0556 104.466 49.707 104.712 49.3653C104.721 49.3529 104.73 49.3406 104.739 49.3282C105.068 48.8726 105.404 48.4275 105.735 48.0011C105.99 47.6732 106.243 47.3562 106.489 47.0532C106.512 47.0255 106.484 46.9858 106.45 46.9971V46.9971C106.234 47.0698 106.005 47.1481 105.767 47.2315C105.549 47.3078 105.323 47.3883 105.094 47.4747C104.889 47.5525 104.642 47.649 104.51 47.7198L104.251 47.8692C103.992 48.0243 103.732 48.1955 103.455 48.3839C103.112 48.618 102.758 48.8709 102.39 49.13C102.036 49.3787 101.669 49.6336 101.284 49.8829C100.983 50.078 100.67 50.2706 100.344 50.4512C100.263 50.4959 100.181 50.5393 100.099 50.5821C99.6849 50.7978 99.2473 50.9938 98.7774 51.1417C98.3228 51.2879 97.7627 51.392 97.2774 51.3907C97.0567 51.4121 96.5226 51.2947 96.2588 51.0069C95.9617 50.7158 95.8619 50.3841 95.8086 50.1251C95.7571 49.8545 95.7538 49.6195 95.7618 49.3975C95.771 49.1727 95.7957 48.9625 95.8262 48.7608C95.8576 48.5548 95.8962 48.3581 95.9366 48.168C95.9769 47.9766 96.0231 47.7826 96.0518 47.6368C96.09 47.4382 96.1376 47.2264 96.1876 47.0313V47.0313C96.1976 46.9919 96.1541 46.961 96.1206 46.9841C96.0338 47.0439 95.9465 47.1031 95.8594 47.1602C95.8462 47.1689 95.8327 47.1779 95.8194 47.1866C95.5567 47.3582 95.2798 47.5287 94.9913 47.6964C94.721 47.8535 94.4395 48.0083 94.1485 48.1612C94.1071 48.183 94.0653 48.205 94.0235 48.2266C93.7875 48.3491 93.5448 48.4705 93.2969 48.5909C93.0187 48.726 92.7333 48.8604 92.4424 48.9942C92.3494 49.037 92.2554 49.0803 92.1612 49.1231C92.0133 49.1904 91.8207 49.2762 91.5899 49.378L90.6973 49.7618C90.4185 49.8766 90.1149 49.9967 89.7813 50.1202C89.4888 50.2283 89.1772 50.3379 88.8419 50.4434C88.6718 50.4969 88.4956 50.5493 88.3135 50.5987C88.1659 50.6387 88.0152 50.6761 87.8585 50.711C87.7093 50.743 87.5577 50.7741 87.397 50.7989C87.01 50.8587 86.6547 51.0812 86.4924 51.4375C86.3942 51.6531 86.295 51.8684 86.1944 52.0831C85.7125 53.111 85.2045 54.1309 84.6592 55.1348C84.1136 56.1391 83.5307 57.1282 82.8956 58.0889C82.2602 59.0497 81.5727 59.9824 80.8174 60.8682C80.0712 61.7451 79.2216 62.608 78.3389 63.3468C78.1197 63.5311 77.8647 63.7288 77.6182 63.9014C77.3667 64.0777 77.1042 64.2449 76.8165 64.3975C76.5296 64.548 76.2194 64.6886 75.8506 64.7833C75.4866 64.8715 75.0258 64.9353 74.5079 64.7452C73.9828 64.5585 73.6117 64.0824 73.4571 63.7071C73.2888 63.329 73.2243 62.9169 73.1983 62.6251C73.1417 61.9973 73.1311 61.3515 73.1475 60.7305C73.1645 60.1064 73.2097 59.4836 73.2813 58.8634C73.353 58.2446 73.4507 57.6261 73.5811 57.0118C73.712 56.3972 73.8748 55.7853 74.084 55.1798C74.294 54.5746 74.5498 53.9729 74.8868 53.3946C75.2124 52.8313 75.6807 52.2182 76.2256 51.7882C76.6064 51.4805 77.0868 51.1796 77.5313 50.961C77.9873 50.7341 78.4567 50.5546 78.9229 50.4063C79.3893 50.2581 79.854 50.1399 80.3116 50.0343C80.7693 49.9287 81.2211 49.8347 81.6622 49.7384C82.1028 49.6422 82.5342 49.5435 82.9512 49.4278C83.3765 49.3091 83.7536 49.1866 84.1544 49.0196C84.254 48.9768 84.3034 48.9503 84.3848 48.9034C84.462 48.8581 84.5414 48.8045 84.626 48.7432C84.6633 48.7165 84.7006 48.6885 84.7413 48.658C84.8648 48.5651 84.9969 48.4765 85.1234 48.3877C85.2426 48.3039 85.4361 48.2234 85.8395 48.294C85.8612 48.2978 85.8839 48.2868 85.8926 48.2667V48.2667C86.1858 47.5883 86.462 46.9313 86.7188 46.3136C86.8751 45.9376 87.031 45.5567 87.1866 45.1749C87.6355 44.073 88.0644 42.9539 88.4698 41.8507C88.7082 41.2021 88.9376 40.5601 89.1583 39.9356C89.5446 38.8426 89.902 37.8015 90.2286 36.8673C90.3323 36.5705 90.4802 36.2081 90.6622 35.752C90.7872 35.4387 90.9292 35.0783 91.084 34.668C91.0889 34.6551 91.0938 34.642 91.0987 34.629V34.629C91.2436 34.1745 90.9411 33.6999 90.4685 33.635C90.2254 33.6016 89.9842 33.5684 89.7452 33.5352C89.6662 33.5295 89.5827 33.5268 89.4961 33.5196C89.2847 33.502 89.0504 33.4805 88.795 33.4532C88.5775 33.43 88.3441 33.4023 88.0958 33.3712C87.8748 33.3435 87.6412 33.3126 87.3965 33.2774C87.2759 33.2601 87.1519 33.2412 87.0254 33.2218C86.9177 33.2052 86.8076 33.188 86.6973 33.17L86.3419 33.1036C86.2257 33.0805 86.1085 33.0554 85.9883 33.0284C85.9474 33.0191 85.9068 33.0071 85.8653 32.9971V32.9971C85.7993 32.9904 85.7403 33.033 85.7222 33.0969C85.6892 33.2133 85.69 33.1524 85.7085 33.0072C85.712 32.9797 85.6954 32.9541 85.6685 32.9478V32.9478C85.6416 32.9415 85.6123 32.956 85.5997 32.9806C85.3287 33.5102 85.6125 31.3406 85.7582 31.8902C85.7673 31.9244 85.7987 31.9503 85.8341 31.9519V31.9519C85.869 31.9534 85.8981 31.9295 85.9064 31.8956C85.9159 31.8567 85.9243 31.827 85.9311 31.8091C85.9678 31.7121 86.0305 31.9566 86.1341 31.9617C86.1418 31.9621 86.1495 31.9625 86.1573 31.963C86.2752 31.9699 86.3926 31.9782 86.5167 31.9884L88.1221 32.128C89.0202 32.212 89.9614 32.3092 90.9273 32.4181C91.4078 32.4722 91.8599 32.1776 91.9995 31.7147C92.2422 30.9101 92.4804 30.1039 92.7129 29.296C92.7477 29.1753 92.7829 29.0544 92.8174 28.9337C92.8333 28.8656 92.85 28.795 92.8663 28.7247C92.8665 28.7236 92.867 28.7219 92.8672 28.7208C93.1532 27.4867 93.511 25.8985 94.0499 23.837C94.205 23.2431 94.375 22.6093 94.5626 21.9337C94.7756 21.1656 94.9271 20.686 95.0635 20.254C95.1974 19.8296 95.3171 19.45 95.461 18.8868C95.499 18.7382 95.5376 18.583 95.5762 18.4219C95.7039 17.8897 95.8353 17.2929 95.9747 16.6553C96.2268 15.5024 96.5036 14.2159 96.8301 12.9327C96.834 12.9177 96.838 12.9027 96.8419 12.8878C96.8645 12.7992 96.8888 12.7038 96.9141 12.6046V12.6046C96.9242 12.5651 96.8709 12.5419 96.8487 12.5761C96.8181 12.6232 96.7872 12.6702 96.7559 12.7169C96.3623 13.3055 95.9204 13.8931 95.4639 14.4288C95.0454 14.9216 94.5716 15.4087 94.0928 15.8468C93.6097 16.2895 93.1039 16.7031 92.5831 17.0919C92.0621 17.4807 91.5251 17.8446 90.9786 18.1886C90.432 18.5324 89.875 18.8572 89.3116 19.1651C88.7482 19.473 88.1778 19.7645 87.6036 20.045C87.0308 20.3248 86.449 20.5958 85.8721 20.8555C85.8347 20.8723 85.7878 20.8943 85.7325 20.92C85.1275 21.2021 84.4933 21.4922 83.8721 21.7589C83.1849 22.0545 82.4901 22.3346 81.8174 22.5841C81.0968 22.8514 80.3891 23.0878 79.7042 23.2843C78.942 23.5024 78.2048 23.6729 77.5079 23.7686C77.3136 23.795 77.0995 23.8184 76.9112 23.8311C76.282 23.8746 75.6863 23.8443 75.1876 23.6719C74.9394 23.5562 74.7449 23.4307 74.5937 23.301C73.9957 22.788 74.5961 22.8703 75.3711 23.0118V23.0118C75.7461 23.0815 76.2505 23.0552 76.8077 22.9581C76.9743 22.9291 77.1663 22.8905 77.3419 22.8497C77.972 22.7048 78.6563 22.495 79.3721 22.2423C80.0157 22.0148 80.6875 21.7519 81.377 21.4639C82.0203 21.1952 82.6889 20.9005 83.3545 20.5948C83.9599 20.3175 84.5648 20.0285 85.1807 19.7335C85.238 19.7063 85.2874 19.683 85.3282 19.6641C85.898 19.4005 86.4578 19.1327 87.0147 18.8536C87.5708 18.5749 88.1199 18.2864 88.6592 17.9844C89.1984 17.6826 89.7281 17.3673 90.2442 17.0352C90.7604 16.703 91.2639 16.3535 91.7481 15.9844C92.2321 15.6156 92.6974 15.2262 93.1377 14.8145C93.5827 14.3978 93.9821 13.9809 94.3751 13.5108C94.8061 12.9931 95.1849 12.4778 95.5518 11.919C95.9148 11.3653 96.2487 10.7903 96.5567 10.2003C96.7327 9.86298 96.9003 9.51959 97.0596 9.17293C97.1767 8.91347 97.29 8.65047 97.3985 8.38679L97.3995 8.38386C97.6591 7.75234 97.8865 7.12321 98.0879 6.49617C98.2961 5.8479 98.4772 5.2016 98.6377 4.55574C98.8017 3.89555 98.9416 3.24897 99.0684 2.58113C99.0686 2.57893 99.0703 2.56745 99.0713 2.56062C99.0815 2.49507 99.0968 2.39734 99.1094 2.31257C99.1245 2.21173 99.1385 2.11211 99.1534 2.01082C99.1681 1.91013 99.1827 1.80898 99.1973 1.70808C99.2119 1.60712 99.2268 1.50539 99.2413 1.40437C99.2512 1.33522 99.2608 1.26628 99.2706 1.19734V1.19734ZM84.7354 50.3936C84.2969 50.5819 83.8112 50.7447 83.3585 50.8731C82.8984 51.0042 82.4404 51.1122 81.9893 51.2139C81.5382 51.3156 81.0928 51.4113 80.6583 51.5147C80.2238 51.6181 79.7992 51.7294 79.3907 51.8624C78.9821 51.9953 78.589 52.1497 78.2208 52.336C77.8425 52.529 77.5315 52.7243 77.1954 52.9942C76.7955 53.3252 76.515 53.6999 76.2354 54.1778C76.1864 54.2629 76.1384 54.3497 76.0919 54.4395C75.8758 54.882 75.7215 55.3192 75.6094 55.7032C75.5636 55.8607 75.5241 56.0114 75.4913 56.1514C75.4102 56.4985 75.3601 56.8013 75.3165 57.1124C75.3048 57.1964 75.2941 57.2816 75.2833 57.3682C75.24 57.7178 75.1992 58.098 75.1553 58.585C75.1415 58.74 75.1263 58.9068 75.1124 59.0704C75.0831 59.4087 75.0571 59.7441 75.0342 59.9981C75.0184 60.1724 75.0031 60.3093 74.9903 60.4298C74.9779 60.5479 74.9678 60.654 74.9629 60.7745C74.962 60.7983 74.9615 60.8228 74.961 60.8477C74.959 60.9586 74.9642 61.0709 74.9717 61.213C74.9846 61.4362 75.0017 61.7297 75.0294 62.1534C75.0359 62.2502 75.0435 62.3536 75.0528 62.4522L75.0743 62.6221C75.097 62.7702 75.1249 62.8599 75.1612 62.9483V62.9483C75.177 62.9805 75.2104 63.0003 75.2462 62.9978C75.2837 62.9951 75.3325 62.9883 75.3897 62.9727C75.5443 62.9344 75.7412 62.8528 75.9385 62.7481C76.1368 62.6433 76.3401 62.515 76.5411 62.3741C76.7467 62.2293 76.9291 62.0893 77.1338 61.918C77.2214 61.8446 77.3075 61.7698 77.3926 61.6954C78.1285 61.0522 78.7893 60.3662 79.3926 59.6583C80.0545 58.8813 80.6261 58.1012 81.1036 57.3917C81.1762 57.2837 81.2512 57.1713 81.3272 57.0557C81.847 56.2663 82.4305 55.307 83.0137 54.2452C83.5224 53.3211 84.0322 52.3202 84.5186 51.3009C84.5359 51.2646 84.5531 51.2278 84.5704 51.1915C84.6744 50.9727 84.7768 50.7528 84.8783 50.5329C84.9186 50.4456 84.8241 50.3565 84.7354 50.3936V50.3936ZM21.9145 9.4924C21.9625 9.44786 22.017 9.40933 22.0764 9.38172C22.6017 9.13745 22.9375 9.43295 23.0649 9.56965C23.1019 9.60929 23.1367 9.65087 23.1685 9.69478C23.237 9.7895 23.2746 9.86335 23.3126 9.93562C23.3561 10.0215 23.3913 10.1012 23.4229 10.1788C23.4534 10.2537 23.4851 10.3397 23.5088 10.4083C23.6235 10.7371 23.7277 11.1029 23.8067 11.4473C23.8281 11.5401 23.8484 11.6335 23.8672 11.7266C23.931 12.0023 23.9822 12.2619 24.0245 12.5001C24.068 12.7455 24.1028 12.9691 24.1329 13.1661C24.154 13.3046 24.1732 13.4336 24.1915 13.5577C24.2098 13.6827 24.2273 13.8035 24.2432 13.9259C24.2711 14.1408 24.2956 14.3615 24.3126 14.6182C24.3217 14.7585 24.328 14.9103 24.3311 15.0772C24.3348 15.2691 24.3308 15.4784 24.3204 15.6749C24.3108 15.8567 24.2958 16.028 24.2784 16.1661C24.2614 16.3002 24.2428 16.4028 24.2256 16.4942C24.2117 16.5681 24.1985 16.636 24.1876 16.7091C24.183 16.7392 24.1795 16.7708 24.1758 16.8038C24.167 16.8846 24.1635 16.9699 24.1592 17.0743C24.1523 17.2408 24.1427 17.4589 24.1045 17.7862C23.9696 18.9445 23.7963 20.252 23.6036 21.5382C23.5929 21.6098 23.5822 21.6815 23.5713 21.753C23.3437 23.2614 23.0889 24.7322 22.876 25.9024C22.8505 26.0434 22.8231 26.1908 22.794 26.3438C22.5534 27.6137 22.189 29.2714 21.7676 30.919C21.7518 30.9812 21.7358 31.0434 21.7198 31.1055C21.4051 32.3305 21.0622 33.5422 20.7491 34.5841C20.6281 34.9874 20.5046 35.3968 20.378 35.8077C20.1677 36.4903 19.9492 37.1775 19.7237 37.8477C19.4171 38.76 19.0963 39.6411 18.7745 40.4395C18.6421 40.768 18.5094 41.084 18.378 41.3809C18.287 41.5864 18.1539 41.8346 17.9844 42.1427C17.8644 42.3607 17.7239 42.6134 17.5665 42.9005C17.263 43.5618 16.9469 44.2147 16.6192 44.8536C16.5326 45.0217 16.4419 45.1912 16.35 45.3617C16.2797 45.4921 16.2391 45.6363 16.2319 45.7842C16.2155 46.1263 16.202 46.4691 16.1915 46.8136C16.1823 47.1109 16.1676 47.4082 16.1563 47.6954C16.1448 47.984 16.1356 48.2691 16.1338 48.5509C16.1321 48.8321 16.1372 49.1107 16.1544 49.3839C16.1715 49.6571 16.2012 49.9257 16.2471 50.1846C16.2931 50.4438 16.3556 50.6943 16.4415 50.9259C16.5333 51.1674 16.6217 51.345 16.7696 51.5528C16.8881 51.7078 16.933 51.7396 17.0186 51.7911C17.0913 51.8274 17.1528 51.8389 17.2618 51.8243C17.3684 51.809 17.509 51.7563 17.6534 51.6768C17.7989 51.5973 17.9498 51.4935 18.1006 51.378C18.2519 51.2621 18.404 51.1347 18.5596 51.0001C18.7127 50.8681 18.878 50.7193 19.0518 50.5782C19.2143 50.4467 19.3725 50.3162 19.5333 50.1807C19.6931 50.0459 19.8531 49.9092 20.0137 49.7716C20.1744 49.6339 20.336 49.495 20.4991 49.3565C20.6621 49.2181 20.827 49.0796 20.9942 48.9425C21.1615 48.8052 21.3317 48.6681 21.5049 48.5343C21.6764 48.4017 21.8582 48.2667 22.0352 48.1417C22.2422 47.9951 22.47 47.8514 22.6817 47.7247C22.8969 47.5957 23.1106 47.4736 23.3194 47.3536C23.5281 47.2337 23.733 47.1158 23.9297 46.9942C24.1266 46.8726 24.3155 46.7469 24.4932 46.6153C24.6708 46.4839 24.837 46.3459 24.9864 46.1983C25.1411 46.044 25.2569 45.9095 25.3819 45.7266C25.5251 45.5133 25.6349 45.3157 25.7452 45.086C25.8523 44.8615 25.9464 44.6275 26.0284 44.3868C26.1103 44.146 26.181 43.8983 26.2422 43.6466C26.3035 43.395 26.3554 43.1388 26.4004 42.88C26.4455 42.6209 26.4835 42.3591 26.5167 42.0948C26.5499 41.8299 26.5778 41.5659 26.6036 41.296C26.6044 41.2878 26.6017 41.1533 26.5977 41.0636C26.5938 40.9639 26.5898 40.8598 26.586 40.7559C26.5822 40.6514 26.5786 40.546 26.5772 40.4366V40.4366C26.576 40.3034 26.5585 39.9975 26.6405 39.8926C26.8981 39.5633 27.4639 39.0614 27.6892 39.6551C27.7074 39.7032 27.7266 39.7523 27.7492 39.7985C27.8117 39.9268 27.8383 40.0169 27.8702 40.1055C28.0311 40.5785 28.2173 41.0422 28.4122 41.5177C28.6068 41.9912 28.808 42.4677 29.004 42.9503C29.1065 43.2027 29.2082 43.4575 29.3067 43.7139C29.3961 43.9468 29.4839 44.1813 29.5674 44.418C29.7429 44.916 29.9036 45.4245 30.0333 45.9464C30.0345 45.9512 30.0356 45.956 30.0368 45.9608C30.1165 46.285 30.464 46.4695 30.7725 46.3419V46.3419C30.9106 46.2847 31.0498 46.2284 31.1885 46.1729C31.6144 45.9991 32.0393 45.8353 32.461 45.6807C33.0393 45.4687 33.6123 45.2746 34.1778 45.0968C34.7653 44.9119 35.352 44.7419 35.918 44.5899C36.0595 44.552 36.2029 44.5161 36.3379 44.4815C36.4068 44.4639 36.4751 44.4463 36.542 44.4288C36.6089 44.4112 36.6755 44.3931 36.7403 44.3751C36.8717 44.3386 36.9992 44.3013 37.1211 44.2608C37.2449 44.2197 37.3637 44.1748 37.4756 44.127C37.5891 44.0786 37.6963 44.0267 37.795 43.9698C37.8892 43.9148 37.9557 43.8689 38.0369 43.8059C38.0423 43.8017 38.0424 43.7888 38.0412 43.7821V43.7821C38.0386 43.7679 38.0489 43.7443 38.0422 43.7315C37.9084 43.479 38.0142 43.6041 38.1876 43.8513C38.1973 43.8651 38.2084 43.8774 38.221 43.8886C38.5547 44.1835 39.1872 44.8919 38.7384 44.6214C38.7301 44.6163 38.7187 44.6164 38.7107 44.622V44.622C38.7013 44.6286 38.6988 44.6413 38.7047 44.6512C38.7602 44.7453 38.8035 44.8238 38.8256 44.874C38.8888 45.0175 38.5885 44.8585 38.4589 44.9467C38.4475 44.9544 38.4362 44.9621 38.4249 44.9698C38.336 45.0303 38.248 45.0907 38.1592 45.1505C38.0696 45.2109 37.9798 45.2707 37.8897 45.3302C37.7978 45.3907 37.7061 45.4501 37.6114 45.5098C37.5185 45.5683 37.4106 45.6348 37.3047 45.6925C37.1074 45.7999 36.9145 45.9058 36.7262 46.0097C36.6555 46.0487 36.6743 46.1614 36.7529 46.1797V46.1797C36.7627 46.182 36.7742 46.1868 36.7824 46.1925C37.3644 46.5965 37.3159 46.9666 37.2756 47.2007C37.2557 47.3167 37.2499 47.4365 37.2326 47.553C37.209 47.7113 37.1884 47.8675 37.171 48.0264C37.1472 48.243 37.1299 48.4598 37.1192 48.6749C37.1086 48.8896 37.105 49.1035 37.1104 49.3145C37.1158 49.5258 37.1298 49.7351 37.1553 49.9386C37.1809 50.1419 37.2178 50.3401 37.2686 50.5284C37.3226 50.7245 37.3769 50.8753 37.4649 51.0548C37.4988 51.1226 37.532 51.1836 37.5639 51.2383C37.583 51.271 37.6308 51.2743 37.6524 51.2432V51.2432C37.7285 51.1352 37.8086 51.011 37.8936 50.8829C37.9766 50.7577 38.076 50.6118 38.171 50.4844C38.2897 50.3248 38.4073 50.1661 38.5264 50.0069C38.6484 49.8559 38.7712 49.705 38.8975 49.5509C38.9929 49.4345 39.0909 49.3144 39.1895 49.1944C39.5201 48.7922 39.8699 48.3699 40.254 47.9249C40.5954 47.5297 40.9649 47.1164 41.376 46.6905C41.7424 46.3111 42.1425 45.9207 42.587 45.5284C42.9862 45.1761 43.4213 44.8223 43.8985 44.4727C44.3262 44.1591 44.8012 43.8407 45.2969 43.5411C45.5075 43.4133 45.7334 43.2761 45.961 43.1387C46.1775 43.008 46.403 42.8728 46.6309 42.7374C46.6504 42.7258 46.6699 42.7139 46.6895 42.7022C46.8906 42.583 47.0962 42.4624 47.3067 42.3409C47.4972 42.2311 47.6891 42.1208 47.8936 42.0096C47.9539 41.9768 47.9712 41.9037 47.9595 41.8361C47.9526 41.7961 47.9624 41.7734 47.9851 41.7647C48.0222 41.7505 48.0793 41.7439 48.1075 41.7718V41.7718C48.1137 41.7779 48.1267 41.7897 48.1346 41.7933C48.574 41.9933 49.6275 42.9717 48.9094 42.8454C48.8715 42.8388 48.831 42.8479 48.8006 42.8715V42.8715C48.7619 42.9016 48.7488 42.9512 48.7535 43.0001C48.7557 43.0221 48.7543 43.0394 48.7488 43.0511C48.7105 43.133 48.5672 43.0563 48.4957 43.1117C48.4 43.1858 48.3044 43.2586 48.2061 43.3321C47.8425 43.6031 47.4433 43.8725 47.044 44.129C46.6637 44.3735 46.2721 44.6145 45.876 44.8624C45.5002 45.0977 45.1197 45.3394 44.7432 45.5977C44.7036 45.6249 44.6635 45.6532 44.6241 45.6807C44.2571 45.9369 43.948 46.1717 43.6846 46.3897C43.2817 46.7233 42.9839 47.0161 42.7442 47.2784C42.5215 47.5227 42.3484 47.7418 42.2032 47.9454C42.1209 48.0612 42.0443 48.1774 41.9708 48.2989C41.9492 48.3352 41.926 48.3818 41.8995 48.4386C41.8442 48.5573 41.7898 48.6908 41.7393 48.8243C41.6677 49.0142 41.6014 49.2103 41.5411 49.4151C41.4847 49.6071 41.4331 49.8068 41.3907 50.0108C41.3513 50.2013 41.3189 50.3984 41.3077 50.586C41.307 50.5982 41.3062 50.6104 41.3057 50.6221V50.6221C41.3022 50.6466 41.331 50.6619 41.352 50.6489C41.6229 50.4811 41.9005 50.3041 42.1973 50.1085C42.4847 49.919 42.7862 49.7151 43.1036 49.4962C43.3639 49.3166 43.6353 49.1268 43.919 48.9259C43.9468 48.9061 43.9744 48.886 44.002 48.8663C44.3117 48.6457 44.6079 48.4276 44.8917 48.2149C45.198 47.9852 45.4908 47.7615 45.7706 47.544C46.0753 47.3071 46.3654 47.0779 46.6426 46.8575C46.7221 46.7885 46.8821 46.6134 47.003 46.4815C47.1375 46.3343 47.2702 46.1867 47.3985 46.044C47.5345 45.8927 47.6673 45.7458 47.7969 45.6026C47.9348 45.4504 48.0698 45.303 48.2032 45.1602C48.3174 45.0381 48.4306 44.9183 48.5454 44.8028C48.6006 44.7473 48.6672 44.7037 48.7212 44.6471C48.7939 44.571 48.8098 44.4953 48.9588 44.4172C49.2676 44.2552 49.6571 44.4005 49.8514 44.6901C50.0364 44.9659 49.9758 45.0513 49.946 45.1523C49.91 45.2741 49.9592 45.4052 49.9585 45.5321C49.9575 45.7066 49.9533 45.8716 49.9483 46.0323C49.9406 46.272 49.9302 46.4972 49.92 46.713C49.9087 46.9498 49.8976 47.1741 49.8858 47.3887C49.8729 47.624 49.8592 47.8469 49.8467 48.0616C49.8416 48.1499 49.8372 48.2325 49.8321 48.3204C49.8312 48.3375 49.8303 48.3549 49.8294 48.3725C49.8279 48.4018 49.8678 48.4165 49.8848 48.3927V48.3927C50.1553 48.0141 50.4269 47.6104 50.6915 47.1964C50.9531 46.787 51.2084 46.3678 51.4532 45.9561C51.7132 45.5188 51.9617 45.0893 52.1924 44.6886C52.2073 44.6628 52.2217 44.6369 52.2364 44.6114C52.4248 44.2843 52.6539 43.8696 52.9112 43.3995C53.1304 42.9994 53.3732 42.5539 53.6299 42.0968C53.9177 41.5844 54.2209 41.0481 54.5137 40.5177C54.8122 39.9775 55.1011 39.4407 55.3604 38.9337C55.4054 38.8458 55.4491 38.7588 55.4922 38.6729C55.6837 38.2916 55.9083 37.8439 56.1456 37.335C56.2484 37.1141 56.3535 36.8815 56.4588 36.6379C56.4864 36.5742 56.5069 36.5078 56.5204 36.4398C56.5524 36.2796 56.5845 36.1194 56.6172 35.961C56.678 35.667 56.7391 35.3776 56.8018 35.085C56.8644 34.7935 56.9285 34.5024 56.9932 34.211C57.0582 33.9187 57.123 33.6296 57.1915 33.336C57.229 33.1757 57.2669 33.016 57.3061 32.8555C57.3613 32.6303 57.0925 32.3135 57.3083 32.229C57.3382 32.2173 57.3731 32.2062 57.4125 32.1958C57.4706 32.1803 57.523 32.1519 57.5831 32.1527V32.1527C57.5994 32.1529 57.6259 32.1531 57.642 32.1505C58.1063 32.0764 58.8052 32.0616 59.0996 32.1543C59.4263 32.2571 58.9527 32.6982 58.9004 33.0367C58.8309 33.487 58.7354 33.9422 58.6231 34.3721C58.4637 34.9856 58.2662 35.5838 58.044 36.168C57.9954 36.2959 57.945 36.4231 57.8939 36.5497C57.8691 36.6109 57.8502 36.6743 57.8377 36.7392C57.8141 36.8612 57.7908 36.9803 57.7696 37.0968C57.5767 38.1546 57.4176 39.0392 57.2833 39.8155C57.1656 40.4946 57.0666 41.0908 56.9786 41.6466C56.9304 41.9507 56.8855 42.2434 56.8428 42.5303C56.8111 42.7441 56.7806 42.9553 56.751 43.1661C56.6615 43.8044 56.5699 44.5058 56.4883 45.2462C56.3929 46.1116 56.3114 47.0309 56.2598 47.9639C56.2476 48.1843 56.2373 48.4056 56.2286 48.627C56.2014 49.3131 56.1914 50.0018 56.2022 50.6768C56.2172 51.6215 56.2708 52.5183 56.3594 53.3741C56.4026 53.7947 56.4468 54.1882 56.5001 54.5567C56.5275 54.7474 56.5568 54.9314 56.5889 55.1075C56.6217 55.3044 56.659 55.4993 56.7012 55.6905C56.7824 56.058 56.8836 56.4148 57.0127 56.7432C57.1414 57.0708 57.2997 57.3717 57.4883 57.6094C57.6777 57.8485 57.8922 58.0189 58.1348 58.1202C58.4029 58.2229 58.5994 58.2562 58.9766 58.2315C59.4427 58.1899 59.8503 58.1015 60.3008 57.963C60.741 57.8259 61.1758 57.6472 61.6006 57.4386C62.0253 57.2299 62.4412 56.9903 62.8448 56.7296C63.248 56.4689 63.6404 56.1861 64.0196 55.8858C64.3993 55.5849 64.7668 55.2663 65.1192 54.9327C65.4089 54.6583 65.6885 54.3737 65.9522 54.0831C66.0104 54.019 66.0681 53.9536 66.1251 53.8887L66.3614 53.6114C66.5886 53.3372 66.7901 53.0696 66.9844 52.7813C67.249 52.388 67.4751 51.9849 67.6592 51.5792C67.8569 51.1446 68.0077 50.7054 68.1231 50.2735C68.252 49.7921 68.3382 49.3189 68.4053 48.8761C68.4194 48.7826 68.4329 48.6911 68.4454 48.6007C68.5065 48.1574 68.5512 47.7592 68.5938 47.4141C68.708 46.4544 68.8198 45.9221 68.9424 45.921C69.0618 45.9238 69.186 46.4481 69.2764 47.4249C69.3072 47.7774 69.3324 48.1884 69.334 48.6593C69.3343 48.7553 69.3332 48.8528 69.3311 48.9532C69.3213 49.429 69.2842 49.9528 69.1876 50.5059C69.1011 51.0016 68.9646 51.5214 68.7647 52.0401C68.579 52.5242 68.3373 53.007 68.0499 53.4688C67.7779 53.9079 67.4486 54.3489 67.1124 54.7423C67.0538 54.811 66.9929 54.8812 66.9307 54.9512C66.6427 55.2757 66.3422 55.5879 66.0333 55.8868C65.6566 56.2511 65.2642 56.5986 64.8565 56.9288C64.449 57.2586 64.0251 57.5714 63.585 57.8624C63.1448 58.1533 62.6874 58.4238 62.211 58.6641C61.7343 58.9043 61.2382 59.115 60.7198 59.2823C60.2125 59.4473 59.6375 59.5768 59.1026 59.6261C58.6693 59.6748 58.069 59.6266 57.5997 59.4268C57.1066 59.2297 56.6865 58.884 56.379 58.5001C56.0686 58.1149 55.8508 57.6936 55.6807 57.2745C55.5113 56.8541 55.3893 56.4305 55.292 56.0089C55.202 55.6169 55.1336 55.2246 55.0782 54.837C55.074 54.8076 55.0695 54.7782 55.0655 54.7491C55.008 54.3345 54.9647 53.9143 54.9249 53.5118C54.8321 52.5833 54.7815 51.6263 54.7696 50.6905C54.7574 49.7504 54.7822 48.8112 54.837 47.8761C54.8918 46.9409 54.9765 46.0093 55.0831 45.0821C55.1896 44.1548 55.3177 43.2313 55.461 42.3126C55.5215 41.9245 55.5848 41.5372 55.65 41.1505C55.656 41.115 55.6083 41.0984 55.5909 41.13V41.13C55.2958 41.6631 54.9986 42.191 54.709 42.712C54.4698 43.1426 54.2398 43.5706 54.0118 43.9991C53.7771 44.4401 53.5467 44.8777 53.3174 45.3057C53.0774 45.754 52.8387 46.1924 52.6006 46.6153C52.3457 47.0682 52.0909 47.5035 51.837 47.9151C51.5559 48.371 51.2754 48.7975 50.9991 49.1886C50.9695 49.2304 50.9407 49.2725 50.9112 49.3136C50.7802 49.4962 50.6458 49.6759 50.5115 49.8483C50.2452 50.1902 49.9724 50.691 49.5462 50.6127C49.2207 50.5529 48.8281 50.4201 48.6026 50.2973C48.4122 50.1936 48.4899 49.8813 48.4727 49.6651V49.6651C48.4669 49.5631 48.4657 49.4721 48.4659 49.3848C48.4661 49.2958 48.4681 49.2102 48.4708 49.128C48.4735 49.044 48.4768 48.962 48.4805 48.8839C48.4844 48.8024 48.4883 48.7272 48.4913 48.6573L48.5557 47.9464C48.5788 47.7161 48.6015 47.4967 48.6221 47.2833C48.6441 47.0557 48.6644 46.8372 48.6827 46.6251C48.6855 46.5919 48.6877 46.5583 48.6905 46.5255C48.6938 46.4853 48.6963 46.4451 48.6991 46.4052C48.7 46.3913 48.6831 46.3843 48.6739 46.3946V46.3946C48.5731 46.5071 48.4678 46.6262 48.3575 46.7511C48.3337 46.7779 48.3088 46.8063 48.2842 46.8341C48.1594 46.9753 48.0275 47.1239 47.8887 47.2794C47.741 47.438 47.6686 47.5428 47.3975 47.7891C47.1239 48.0127 46.8337 48.2491 46.5303 48.4932C46.2494 48.7193 45.9555 48.9533 45.6504 49.1915C45.3621 49.4166 45.0632 49.6464 44.754 49.877C44.4572 50.0983 44.1507 50.321 43.835 50.5421C43.5288 50.7565 43.2134 50.9697 42.8897 51.1788C42.622 51.3517 42.3413 51.5263 42.0616 51.6921C41.9636 51.7502 41.8591 51.8003 41.7594 51.8554C41.5149 51.9903 41.0512 52.2121 40.457 51.7361C40.3847 51.6782 40.325 51.605 40.2804 51.5238C39.9763 50.9705 40.1072 50.7439 40.0958 50.4737C40.1148 50.2819 40.1447 50.1077 40.1801 49.9399C40.1886 49.8998 40.1366 49.8751 40.1114 49.9073V49.9073C39.8381 50.2561 39.5708 50.6029 39.3096 50.9454C39.2463 51.0285 39.1826 51.112 39.1192 51.1954C39.0318 51.3106 38.9594 51.416 38.8751 51.5401C38.7915 51.6629 38.7065 51.7911 38.6104 51.9249C38.5199 52.0474 38.4289 52.1757 38.2812 52.3149C38.2449 52.3491 38.2105 52.3856 38.1712 52.4165C37.982 52.5651 37.5245 52.717 37.2169 52.5284C36.9027 52.3592 36.7988 52.1806 36.6856 52.0284C36.5752 51.8643 36.4927 51.7064 36.4249 51.5684C36.3084 51.333 36.213 51.0575 36.1524 50.8243C36.0838 50.5634 36.0411 50.3135 36.0118 50.0772C35.9795 49.8148 35.9638 49.5684 35.9571 49.3399C35.9495 49.0733 35.9532 48.8298 35.961 48.6124C35.9629 48.5608 35.9656 48.5107 35.9678 48.462C35.9767 48.2688 35.9905 48.0806 36.0088 47.8946C36.0122 47.8606 36.0157 47.8264 36.0195 47.7923C36.0331 47.6673 35.8978 47.581 35.795 47.6534V47.6534C35.6486 47.7567 35.4965 47.8719 35.3409 47.9952C35.1944 48.1112 35.0454 48.2336 34.8887 48.3653C34.7931 48.4457 34.695 48.5297 34.5919 48.6173C34.5384 48.6626 34.4812 48.7103 34.4258 48.7559C34.2448 48.906 34.0969 49.0581 33.9229 49.2618C33.7692 49.4427 33.6149 49.6468 33.4561 49.8702C33.3103 50.075 33.1601 50.2961 32.9991 50.5313C32.8504 50.748 32.6926 50.9771 32.5137 51.2139C32.3473 51.4335 32.1631 51.6614 31.9424 51.8858C31.7464 52.0861 31.4873 52.3088 31.2149 52.4698V52.4698C31.2086 52.4736 31.2007 52.4747 31.1935 52.4731C30.5355 52.3272 30.3167 52.1801 30.2686 52.0514C30.181 51.8169 30.3598 51.5011 30.4151 51.2569V51.2569C30.4456 51.1239 30.4783 50.996 30.5118 50.8721C30.5465 50.7441 30.5818 50.619 30.6182 50.4971C30.6557 50.3718 30.6952 50.2464 30.7344 50.1261C30.7811 49.9883 30.8033 49.9043 30.8829 49.712L31.0401 49.3995C31.2062 49.0917 31.3956 48.8003 31.584 48.5499C31.871 48.167 32.1755 47.8395 32.4795 47.5518C32.7475 47.2987 33.016 47.0759 33.2813 46.8731C33.3529 46.8184 33.4249 46.7649 33.4961 46.713V46.713C33.6136 46.6274 33.5177 46.4295 33.3802 46.4764C33.1887 46.5416 33 46.6075 32.8145 46.6739C32.2955 46.8596 31.8013 47.0489 31.3389 47.2335C31.2826 47.2559 31.2251 47.2786 31.168 47.3018C31.093 47.3323 31.0173 47.3634 30.9409 47.3952C30.5564 47.5552 30.3283 47.9441 30.3053 48.3599C30.2884 48.6656 30.2475 48.9724 30.1758 49.2589C30.1006 49.5809 29.9423 49.9703 29.7422 50.2686C29.5382 50.5807 29.2746 50.8522 28.9825 51.0684C28.6902 51.2853 28.3718 51.4495 28.0479 51.5743C27.7238 51.699 27.3924 51.7855 27.0626 51.8458C26.7325 51.9058 26.4026 51.9398 26.0743 51.9552C25.7497 51.9704 25.41 51.9664 25.0938 51.9473C25.0749 51.9462 25.0557 51.9456 25.0372 51.9444C24.845 51.931 24.625 51.9108 24.3962 51.8652C24.319 51.8497 24.2446 51.822 24.1687 51.801C23.9233 51.7331 23.4942 51.6561 23.3892 51.0174C23.3725 50.9161 23.3814 50.8117 23.4123 50.7138C23.5629 50.2374 23.8009 50.1404 23.9835 49.9512C24.1989 49.7729 24.4126 49.6275 24.627 49.4893C24.8415 49.3519 25.0573 49.2238 25.2715 49.1007C25.4863 48.9772 25.7021 48.8586 25.9083 48.7423C26.4295 48.4474 26.9612 48.1569 27.4942 47.879C28.0286 47.6003 28.5687 47.3311 29.1153 47.0743V47.0743C29.1777 47.045 29.2132 46.9781 29.2001 46.9104C29.1557 46.6815 29.1012 46.4429 29.0352 46.1954C29.0212 46.1426 29.0063 46.0892 28.9913 46.0352C28.8695 45.6003 28.7294 45.1804 28.5811 44.7686C28.4068 44.2855 28.2211 43.8139 28.0323 43.3477C27.8787 42.9687 27.7233 42.5923 27.5686 42.2133C27.5604 42.1933 27.5321 42.1973 27.5294 42.2188V42.2188C27.4946 42.4915 27.4542 42.7691 27.4053 43.0518C27.3581 43.3248 27.3029 43.6032 27.2354 43.8858C27.1919 44.0678 27.1431 44.2519 27.0879 44.4376C27.0608 44.5289 27.0318 44.6212 27.001 44.7139C26.9119 44.982 26.8067 45.2557 26.6797 45.5284C26.5603 45.7862 26.4082 46.0636 26.2471 46.3067C26.1062 46.5226 25.9145 46.755 25.7276 46.9425C25.5385 47.1337 25.3352 47.3067 25.127 47.4649C24.9322 47.6129 24.7327 47.7492 24.5333 47.877C24.5206 47.8851 24.5078 47.8934 24.4952 47.9014C24.2821 48.0368 24.0689 48.1638 23.8604 48.2872C23.6496 48.412 23.4431 48.5333 23.2452 48.6553C23.0405 48.7817 22.856 48.9004 22.671 49.0343C22.5007 49.1576 22.3428 49.279 22.1827 49.4053C22.0181 49.5353 21.8574 49.6666 21.7012 49.7969C21.5377 49.9335 21.3784 50.0692 21.2237 50.2022C21.0589 50.3439 20.8989 50.483 20.7442 50.6163C20.5757 50.7615 20.4127 50.9006 20.2569 51.0313C20.2168 51.0649 20.1769 51.0985 20.1377 51.1309C20.0075 51.239 19.8775 51.3429 19.754 51.4386C19.5937 51.5627 19.4387 51.6922 19.2764 51.8223C19.187 51.8942 19.0964 51.9654 19.004 52.0362C19.0024 52.0374 19.0007 52.0389 18.9991 52.0401C18.9735 52.0597 18.947 52.0801 18.921 52.0997C18.8682 52.1431 18.8138 52.1867 18.7588 52.2296C18.581 52.3679 18.3921 52.5029 18.1778 52.6231C17.9638 52.7417 17.7212 52.8504 17.4327 52.8985C17.1476 52.9491 16.8018 52.911 16.5225 52.7647C16.2526 52.6333 16.0146 52.3862 15.8838 52.2042C15.6903 51.9469 15.5183 51.6145 15.4063 51.3165C15.2889 51.0087 15.2078 50.6962 15.1495 50.3858C15.0914 50.0756 15.0555 49.7663 15.0333 49.46C15.0111 49.1539 15.0031 48.8495 15.002 48.5489C15.0015 48.416 15.0024 48.2838 15.0044 48.1521C15.0052 48.0955 14.9308 48.0771 14.9044 48.127V48.127C14.4559 48.9701 13.8804 49.9637 13.0567 51.1182C13.0186 51.1715 12.9814 51.2227 12.9463 51.2706C12.6731 51.6429 12.4689 51.8877 12.2842 52.1065C12.0781 52.3502 11.893 52.5655 11.6397 52.8975C11.3545 53.2705 11.0257 53.7265 10.6511 54.2101C10.6507 54.2107 10.6503 54.2113 10.65 54.212V54.212C10.6496 54.2126 10.6492 54.2133 10.6488 54.2138C10.1221 54.8926 9.49489 55.6433 8.74615 56.3009C8.6954 56.3453 8.64095 56.3931 8.58404 56.4415C8.40854 56.591 8.19711 56.7621 7.96978 56.9298C7.4508 57.3086 6.81192 57.7245 6.00103 57.961C5.36884 58.1781 4.5386 58.242 3.8233 57.918C2.28243 57.1588 1.81984 55.6503 1.4483 54.5001C1.18666 53.5993 0.974415 52.6516 0.81646 51.7257C0.769484 51.4511 0.726648 51.1768 0.687554 50.9014C0.59396 50.2421 0.522395 49.5812 0.468804 48.92C0.392924 47.9833 0.353242 47.0464 0.340874 46.1114C0.328563 45.1765 0.343991 44.243 0.377983 43.3126C0.412014 42.382 0.465184 41.4541 0.530327 40.5284C0.595379 39.6039 0.672536 38.6783 0.75396 37.7598C0.773113 37.5445 0.789143 37.3311 0.806694 37.1114C0.824817 36.891 0.842312 36.668 0.877007 36.4219C0.908785 36.2229 0.937034 36.0137 1.05669 35.7423C1.08588 35.6793 1.12086 35.6144 1.16802 35.546C1.42558 35.1078 2.06616 35.0314 2.31939 35.0968C2.62736 35.1446 2.85767 35.2351 3.08013 35.3243C3.30537 35.4173 3.51851 35.5191 3.71392 35.6182C4.07455 35.8015 4.42967 36.0007 4.75982 36.1934C5.11082 36.3983 5.44515 36.6024 5.7647 36.7989C6.11052 37.0118 6.43996 37.2158 6.75201 37.4053C6.99892 37.5554 7.2358 37.6965 7.46099 37.8272C7.55664 37.8828 7.64975 37.9371 7.74029 37.9884C8.12451 38.206 8.46387 38.3838 8.75005 38.5284C9.4153 38.8634 9.79764 39.0307 9.77544 39.1378C9.75516 39.2368 9.31805 39.271 8.54693 39.0958C8.21631 39.0199 7.82636 38.9035 7.39166 38.7403C7.28918 38.7019 7.18362 38.6607 7.07623 38.6173C6.82339 38.5151 6.55978 38.4005 6.28912 38.2755C5.94726 38.1176 5.59273 37.9425 5.22857 37.7589C4.89216 37.5894 4.54691 37.4125 4.19439 37.2354C3.85816 37.0666 3.5253 36.9024 3.17291 36.7423C2.97891 36.6543 2.79254 36.5755 2.61333 36.5089C2.55017 36.4852 2.48605 36.4631 2.42481 36.4441C2.31037 36.4085 2.19473 36.4826 2.18072 36.6016V36.6016C2.15729 36.7857 2.14312 36.9945 2.12896 37.2081C2.1151 37.4207 2.10136 37.6486 2.08501 37.8682C2.01712 38.786 1.95352 39.7007 1.9024 40.6153C1.85127 41.5298 1.81246 42.4423 1.79205 43.3536C1.77165 44.265 1.76957 45.1755 1.794 46.0821C1.80856 46.6221 1.83247 47.1612 1.86724 47.6983C1.88226 47.8998 1.89915 48.1019 1.91705 48.3028C1.93162 48.4664 1.94781 48.6283 1.9649 48.7891C2.06338 49.7143 2.20217 50.5934 2.38189 51.4483C2.45585 51.7998 2.53673 52.1475 2.62505 52.4923C2.70331 52.7975 2.78594 53.0937 2.87603 53.3956C2.93336 53.5875 2.99726 53.797 3.06841 54.0196C3.36986 54.9782 3.86619 56.0457 4.51373 56.3184C5.00133 56.5995 6.05295 56.1396 6.84478 55.4952C7.36447 55.0919 7.82844 54.6416 8.2022 54.254C8.23431 54.2206 8.26672 54.1864 8.29888 54.1524C8.6239 53.8093 8.93356 53.4556 9.25689 53.0645C9.33852 52.9657 9.42282 52.8623 9.50591 52.7589C10.0192 52.1179 10.6072 51.3413 11.3829 50.212C11.9292 49.4145 12.5736 48.4323 13.3292 47.1895C13.5953 46.7516 13.8815 46.2695 14.1827 45.7471C14.4939 45.1916 14.8078 44.6163 15.0879 44.0704V44.0704C15.1396 43.9693 15.1673 43.8576 15.1739 43.7443C15.1804 43.6318 15.1873 43.5193 15.1944 43.4073C15.2451 42.6022 15.3098 41.8104 15.3741 41.1055C15.428 40.5133 15.481 39.9821 15.5215 39.5548C15.5502 39.2523 15.6005 38.8142 15.67 38.2784C15.7697 37.5074 15.912 36.5339 16.087 35.4698C16.1981 34.7925 16.3218 34.0783 16.4532 33.3555C16.4941 33.1301 16.536 32.9031 16.5782 32.6768C16.7543 31.7308 16.9394 30.7818 17.1153 29.8975C17.2208 29.3669 17.324 28.8562 17.421 28.3809C17.5455 27.7706 17.6846 27.188 17.8301 26.6046C17.8877 26.3737 17.9465 26.1428 18.0059 25.9102C18.2015 25.1447 18.4043 24.3594 18.6016 23.4962C18.6135 23.4444 18.6258 23.3918 18.6377 23.3389C18.7253 22.9511 18.8158 22.536 18.9112 22.0968C19.0067 21.6572 19.1076 21.1925 19.2169 20.7071C19.2516 20.5527 19.3034 20.3337 19.3692 20.0616C19.4955 19.5387 19.6728 18.8181 19.878 17.9757C19.9679 17.6065 20.0631 17.2136 20.1612 16.8038C20.2735 16.3349 20.39 15.8434 20.5069 15.3389C20.6375 14.7387 20.7664 14.1381 20.8917 13.5372C21.1195 12.4445 21.3358 11.355 21.5401 10.2579C21.5512 10.1999 21.5654 10.1306 21.5888 10.0479C21.6041 9.99367 21.627 9.94182 21.6442 9.8882C21.6731 9.79775 21.7039 9.68767 21.9145 9.4924ZM113.578 38.1065C113.377 38.9291 113.176 39.7512 112.98 40.5733C112.783 41.3955 112.591 42.2186 112.407 43.0421C112.237 43.8066 112.074 44.5722 111.921 45.3389C111.909 45.3978 111.897 45.4568 111.886 45.5157C111.723 46.3432 111.572 47.1673 111.437 48.0001C111.343 48.5725 111.252 49.1455 111.17 49.7149C111.088 50.286 111.014 50.8564 110.955 51.4268C110.896 51.9965 110.851 52.5665 110.827 53.1348C110.803 53.7034 110.801 54.2715 110.827 54.8341C110.854 55.3966 110.911 55.9541 111.009 56.5001C111.073 56.8506 111.151 57.1847 111.25 57.5151C111.253 57.5257 111.268 57.5275 111.273 57.5177V57.5177C111.336 57.3937 111.398 57.2636 111.457 57.1329C111.533 56.9658 111.606 56.7949 111.678 56.6231C111.75 56.4503 111.823 56.2748 111.896 56.0997C111.969 55.9235 112.046 55.7371 112.129 55.5567C112.632 54.4703 113.113 53.4089 113.573 52.3731C113.889 51.6637 114.194 50.9668 114.489 50.2852C114.653 49.9081 114.814 49.5358 114.972 49.168C115.452 48.0464 115.905 46.9692 116.33 45.9454C116.808 44.7964 117.251 43.7142 117.659 42.71C117.774 42.4269 117.887 42.1495 117.996 41.879C118.317 41.0878 118.642 40.2807 118.969 39.4649C119.002 39.3825 119.035 39.2999 119.068 39.2172C119.305 38.6207 118.925 37.9579 118.291 37.8595C117.428 37.7256 116.591 37.5959 115.795 37.4727C115.425 37.4154 115.063 37.3594 114.712 37.3053C114.2 37.2262 113.714 37.5525 113.591 38.056C113.586 38.0728 113.582 38.0897 113.578 38.1065ZM92.7383 35.1514C92.734 35.1651 92.73 35.1789 92.7256 35.1925C92.1512 36.9924 91.5463 38.784 90.9053 40.5636C90.2654 42.3403 89.5842 44.1169 88.8682 45.8624C88.4438 46.8973 88.0155 47.9421 87.5743 48.9796C87.5435 49.052 87.5114 49.124 87.4799 49.1962C87.4674 49.2249 87.4929 49.257 87.5235 49.2501V49.2501C87.803 49.187 88.0932 49.1042 88.3809 49.0128C88.67 48.9208 88.9594 48.8192 89.2491 48.711C89.5394 48.6025 89.8259 48.489 90.1153 48.3692C90.2798 48.3011 90.4442 48.2312 90.6075 48.1602C90.7297 48.1064 90.8478 48.0527 90.9756 47.9952C91.0965 47.9413 91.2191 47.8874 91.3409 47.8331C91.5009 47.7617 91.6621 47.69 91.8233 47.6173C92.1003 47.4922 92.3786 47.364 92.6563 47.2325C92.9287 47.1036 93.2011 46.9712 93.4708 46.8331C93.7366 46.697 94.0002 46.5551 94.2598 46.4073C94.5168 46.261 94.7705 46.1077 95.0176 45.9473C95.2665 45.7856 95.4946 45.6271 95.7344 45.4464C95.8705 45.3436 96.0067 45.2399 96.1456 45.1348C96.2842 45.0299 96.4252 44.9237 96.5684 44.8184C96.7119 44.713 96.8592 44.6083 97.0088 44.505C97.1588 44.4015 97.3123 44.2988 97.4698 44.2003C97.6278 44.1015 97.7905 44.0057 97.9571 43.9151C97.9708 43.9076 97.985 43.9002 97.9991 43.8927C98.0077 43.888 98.016 43.8825 98.0245 43.878C98.0364 43.8718 98.0489 43.8663 98.0606 43.8604C98.1668 43.8047 98.2785 43.7491 98.3855 43.6992C98.432 43.6775 98.4867 43.7016 98.5028 43.7503V43.7503C98.5049 43.7567 98.5078 43.7636 98.5121 43.7687C98.5904 43.8625 98.2933 42.6408 99.0704 44.9669C99.0848 45.0102 99.063 45.0607 99.0218 45.0804V45.0804C98.9813 45.0997 98.9629 45.1456 98.977 45.1881L99.0079 45.2813C98.9999 45.2606 98.9709 45.1823 98.9482 45.1236C98.9467 45.1196 98.9421 45.1178 98.9382 45.1196V45.1196C98.935 45.1211 98.9333 45.1247 98.9341 45.1281C98.9345 45.13 98.9349 45.132 98.9354 45.134C98.937 45.1416 98.9327 45.1494 98.9253 45.1518C98.907 45.1579 98.887 45.1648 98.8682 45.1719C98.8446 45.1809 98.8214 45.1902 98.8008 45.1993V45.1993C98.7649 45.2152 98.7339 45.2399 98.7088 45.2701C98.6273 45.368 98.5596 45.4586 98.4844 45.5675C98.3921 45.7022 98.3063 45.8438 98.2276 45.9893C98.148 46.1365 98.0754 46.2885 98.0088 46.4434C97.9412 46.6008 97.8796 46.7615 97.8243 46.9239C97.7681 47.0891 97.7177 47.2561 97.6729 47.4239C97.6266 47.5981 97.5894 47.7607 97.5528 47.9395C97.507 48.1554 97.4624 48.3254 97.4249 48.4962C97.3858 48.6709 97.3525 48.838 97.3262 48.9991C97.2993 49.1642 97.2799 49.3236 97.2725 49.4678C97.2646 49.6159 97.2711 49.7513 97.2881 49.8428V49.8428C97.2934 49.8754 97.3255 49.8969 97.3585 49.8969C97.3657 49.8968 97.3729 49.8968 97.3799 49.8966C97.711 49.8863 98.0132 49.829 98.3428 49.7315C98.716 49.6197 99.0806 49.4633 99.4317 49.2862C99.8039 49.0982 100.162 48.8864 100.508 48.669C100.876 48.4373 101.231 48.1976 101.578 47.961C101.949 47.708 102.311 47.4586 102.673 47.2198C103.054 46.9681 103.46 46.7127 103.851 46.505C104.159 46.3506 104.385 46.2772 104.621 46.1895C104.864 46.1026 105.1 46.0234 105.331 45.9473C105.572 45.8682 105.808 45.793 106.039 45.7208C106.28 45.6456 106.515 45.5743 106.748 45.505C106.991 45.4328 107.227 45.3639 107.464 45.2979V45.2979C107.632 45.2511 107.851 45.2935 107.887 45.1225C107.913 45.0012 107.979 44.9457 108.43 45.5907C108.687 45.9593 108.642 46.456 108.346 46.7936C108.146 47.021 107.948 47.2492 107.751 47.4796C107.39 47.9021 107.036 48.3288 106.689 48.7608C106.342 49.1927 106.002 49.63 105.673 50.0733C105.343 50.5166 105.023 50.9665 104.716 51.4229C104.408 51.8794 104.113 52.3431 103.834 52.8145V52.8145C103.797 52.8779 103.877 52.9432 103.932 52.894C103.947 52.8806 103.962 52.8671 103.977 52.8536C104.182 52.6686 104.384 52.4805 104.584 52.2891C104.774 52.1068 104.999 51.8867 105.134 51.7354C105.244 51.6043 105.36 51.4693 105.475 51.3389C105.59 51.2079 105.708 51.0777 105.828 50.9493C105.948 50.8209 106.072 50.6944 106.197 50.5694C106.323 50.4444 106.451 50.3208 106.582 50.2003C106.713 50.0797 106.849 49.9618 106.986 49.8468C107.021 49.8175 107.057 49.788 107.093 49.7585C107.283 49.604 107.387 49.576 107.561 49.4044V49.4044C107.845 49.1262 108.593 49.1426 108.744 48.7754C108.882 48.4388 109.018 48.1006 109.15 47.7598C109.503 46.8541 109.835 45.9395 110.15 45.0186C110.466 44.0979 110.764 43.1706 111.049 42.2384C111.334 41.3061 111.605 40.3686 111.865 39.4278C111.995 38.9596 112.121 38.4902 112.245 38.0201C112.395 37.4513 112.021 36.8784 111.44 36.7839C110.444 36.6217 109.447 36.46 108.45 36.2999C106.003 35.9066 103.555 35.5212 101.106 35.1495C98.6565 34.7778 96.2058 34.4195 93.753 34.0841C93.5865 34.0613 93.4195 34.0392 93.253 34.0167V34.0167C93.1655 34.0048 93.0824 34.0569 93.0562 34.1412C92.9512 34.4782 92.8456 34.8151 92.7383 35.1514ZM122.927 39.3585C122.772 40.1788 122.62 41.0427 122.487 41.9561C122.419 42.4299 122.356 42.917 122.302 43.418C122.262 43.7908 122.227 44.1715 122.199 44.5596C122.14 45.3905 122.111 46.2577 122.141 47.1593C122.169 47.9943 122.244 48.8352 122.401 49.7257C122.451 49.9996 122.509 50.2531 122.587 50.4844C122.637 50.6422 122.714 50.7976 122.777 50.8893C122.816 50.9459 122.879 50.9803 122.941 50.951C122.967 50.9389 123 50.9217 123.045 50.8975C123.211 50.7946 123.4 50.617 123.579 50.4229C123.688 50.305 123.798 50.1779 123.905 50.0469C123.973 49.964 124.041 49.8796 124.106 49.7979C124.289 49.5655 124.46 49.3393 124.624 49.1251C125.011 48.6203 125.334 48.1908 125.613 47.8057V47.8057C125.617 47.8004 125.618 47.7935 125.619 47.7869C125.632 47.429 125.648 47.0537 125.672 46.6729C125.697 46.265 125.731 45.8453 125.777 45.4151C125.822 45.0023 125.879 44.5795 125.956 44.1495C126.031 43.7331 126.123 43.3093 126.243 42.8819C126.361 42.4646 126.505 42.0432 126.69 41.6251C126.864 41.2258 127.105 40.7857 127.367 40.4229L127.469 40.2774C127.509 40.221 127.552 40.1624 127.601 40.1016C127.649 40.0409 127.701 39.9777 127.768 39.9093C127.836 39.8405 127.91 39.7657 128.054 39.6749C128.161 39.6107 128.559 39.3817 129.029 39.6641C129.383 39.9139 129.413 40.1905 129.441 40.2559C129.611 40.8566 129.638 41.5889 129.564 42.1934C129.491 42.8179 129.335 43.4105 129.137 43.9747C128.937 44.5398 128.695 45.0782 128.431 45.5938C128.276 45.8946 128.114 46.1881 127.946 46.4747C127.825 46.6813 127.699 46.888 127.569 47.0938C127.381 47.3927 127.181 47.6901 126.976 47.9871C126.868 48.1421 126.805 48.3236 126.796 48.5118C126.791 48.6161 126.787 48.7192 126.783 48.8214C126.773 49.1113 126.769 49.3926 126.773 49.6641C126.777 49.9503 126.79 50.227 126.815 50.4913C126.843 50.7713 126.883 51.0385 126.941 51.2862C127.004 51.5493 127.088 51.7923 127.194 51.9942C127.319 52.2213 127.424 52.3522 127.606 52.4776C127.745 52.5591 127.809 52.5688 127.961 52.5772C128.104 52.5792 128.265 52.5464 128.424 52.4932C128.592 52.437 128.759 52.3588 128.919 52.2716C129.088 52.1791 129.25 52.0753 129.405 51.9678C129.57 51.8535 129.727 51.734 129.877 51.6134C130.038 51.484 130.187 51.3555 130.338 51.2237C130.694 50.9112 130.989 50.612 131.266 50.3057C131.505 50.0403 131.721 49.7778 131.921 49.5186C131.981 49.4415 132.039 49.3648 132.096 49.2882C132.367 48.9231 132.612 48.5631 132.846 48.1993C132.97 48.0066 133.09 47.8122 133.21 47.6153C133.317 47.4386 133.426 47.2538 133.537 47.0626C133.75 46.6955 133.969 46.303 134.19 45.8927C134.396 45.5076 134.604 45.1095 134.815 44.6993C134.854 44.6171 134.927 44.4338 134.985 44.2911C135.046 44.1406 135.109 43.9863 135.171 43.8331C135.205 43.7496 135.238 43.6659 135.273 43.5821C135.296 43.4947 135.319 43.4079 135.342 43.3223C135.38 43.1809 135.416 43.0455 135.443 42.9279C135.449 42.9004 135.388 42.8551 135.362 42.8448V42.8448C135.299 42.8203 135.696 42.7465 135.763 42.7513C136.343 42.7927 137.374 43.0172 136.811 43.1551C136.78 43.1628 136.752 43.1884 136.743 43.2195V43.2195C136.732 43.2594 136.753 43.2996 136.791 43.3155C136.907 43.3634 136.993 43.4039 137.032 43.4312C137.177 43.5355 136.738 43.5578 136.671 43.7237C136.65 43.7751 136.629 43.8269 136.608 43.879C136.559 44.0015 136.511 44.124 136.463 44.2462C136.425 44.3863 136.385 44.5247 136.349 44.6632C136.261 45.0009 136.181 45.3315 136.111 45.6514C136.085 45.7707 136.06 45.8888 136.037 46.005C135.998 46.1994 135.959 46.4131 135.924 46.6427C135.877 46.9476 135.835 47.2817 135.809 47.6368C135.785 47.9517 135.774 48.2836 135.781 48.6261C135.789 48.9485 135.811 49.262 135.858 49.6016L135.894 49.8194C135.933 50.0284 135.984 50.2149 136.058 50.4014C136.153 50.6391 136.281 50.835 136.438 50.96C136.591 51.084 136.78 51.1497 137.015 51.1651C137.249 51.1806 137.517 51.142 137.785 51.0733C138.06 51.0029 138.338 50.9027 138.608 50.7901C138.892 50.6716 139.16 50.544 139.434 50.4063C139.495 50.3753 139.557 50.3447 139.617 50.3136C139.958 50.1372 140.327 49.9354 140.725 49.6973C141.114 49.4641 141.525 49.1977 141.942 48.8897C142.313 48.6166 142.689 48.3105 143.055 47.9649C143.169 47.8567 143.283 47.7441 143.395 47.628C143.61 47.4041 143.82 47.1654 144.019 46.9102C144.301 46.5476 144.56 46.1514 144.78 45.7237C144.992 45.3091 145.156 44.903 145.288 44.4239C145.342 44.2236 145.374 44.0661 145.395 43.8829C145.413 43.7114 145.413 43.5453 145.389 43.3975C145.365 43.2505 145.32 43.1208 145.249 43.002C145.179 42.8848 145.083 42.7757 144.959 42.6729C144.911 42.6331 144.859 42.5941 144.804 42.5567C144.718 42.4986 144.624 42.444 144.527 42.3936C144.357 42.3059 144.199 42.2393 144.006 42.1671C143.248 41.8869 142.543 41.6739 141.856 41.4913C141.071 41.2831 140.334 41.1218 139.644 40.9874C138.832 40.8299 138.084 40.709 137.392 40.6055C136.561 40.4819 135.809 40.3834 135.114 40.296C134.348 40.1998 133.652 40.1169 132.993 40.0362C132.935 40.0291 132.878 40.0218 132.82 40.0147C132.118 39.9283 131.451 39.8445 130.787 39.752C130.697 39.7394 130.605 39.7261 130.514 39.713C128.375 39.4071 125.781 39.0181 123.149 38.6134V38.6134C123.107 38.6069 123.068 38.6346 123.06 38.6763C123.015 38.9003 122.97 39.1277 122.927 39.3585ZM28.3721 48.588C28.2383 48.6561 28.105 48.7249 27.9708 48.795C27.4511 49.0662 26.9332 49.3487 26.4151 49.6407C26.2018 49.7606 25.9892 49.8773 25.7842 49.9942C25.577 50.1123 25.3736 50.2316 25.1807 50.3536C24.9849 50.4776 24.7968 50.6052 24.6368 50.7354C24.5903 50.7733 24.547 50.8126 24.5079 50.8501C24.5024 50.8554 24.5052 50.8665 24.5128 50.8672V50.8672C24.5134 50.8672 24.514 50.8673 24.5146 50.8675C24.704 50.9176 24.9221 50.9456 25.1524 50.9659C25.465 50.9928 25.7482 51.0038 26.0294 51.0001C26.1366 50.9986 26.2417 50.9952 26.3448 50.9893C26.5351 50.9784 26.7188 50.9592 26.8956 50.9327C26.9646 50.9224 27.0338 50.9113 27.1006 50.8985C27.3122 50.8511 27.519 50.79 27.7159 50.7139C27.9756 50.6136 28.2187 50.4859 28.4317 50.3272C28.6449 50.1686 28.8271 49.9791 28.9688 49.7618C29.0296 49.6688 29.0844 49.5689 29.1299 49.4678C29.1783 49.3482 29.2193 49.2184 29.254 49.0587C29.2555 49.0514 29.2572 49.0432 29.2587 49.0357C29.2588 49.0356 29.2588 49.0357 29.2588 49.0357V49.0357C29.2588 49.0358 29.2589 49.0358 29.2589 49.0357C29.3102 48.7812 29.3346 48.5217 29.3359 48.2379C29.3362 48.1796 29.2752 48.1419 29.2226 48.1671C28.9419 48.302 28.6576 48.4425 28.3721 48.588ZM128.351 42.0577C128.374 41.7816 128.064 41.701 127.945 41.9512C127.915 42.0129 127.886 42.0763 127.857 42.1417C127.711 42.4754 127.583 42.8383 127.47 43.2276C127.376 43.5506 127.293 43.8919 127.22 44.2501C127.211 44.2907 127.203 44.3316 127.195 44.3721C127.118 44.7712 127.058 45.1652 127.011 45.5509V45.5509C127.005 45.5992 127.07 45.621 127.095 45.5791C127.159 45.471 127.221 45.3633 127.281 45.254C127.316 45.1909 127.35 45.1267 127.384 45.0626C127.624 44.6039 127.841 44.1153 128.018 43.585C128.165 43.138 128.286 42.66 128.341 42.1524C128.344 42.1217 128.348 42.0891 128.351 42.0577V42.0577ZM22.3643 13.8516C22.1241 14.9497 21.8737 16.0444 21.6182 17.1368C21.3673 18.2097 21.1104 19.2804 20.8526 20.3497C20.8481 20.3691 20.8435 20.3888 20.8389 20.4083C20.8011 20.5702 20.7634 20.7347 20.7247 20.9005C20.5175 21.7867 20.2972 22.7248 20.0752 23.6768C19.8214 24.7652 19.5647 25.8724 19.3223 26.9425C19.0602 28.0988 18.8157 29.2082 18.6006 30.2091C18.4824 30.759 18.3729 31.2727 18.2735 31.7403C18.1839 32.1615 18.099 32.5673 18.0186 32.9581C17.811 33.9668 17.6326 34.8777 17.4776 35.711C17.2869 36.7366 17.1314 37.6452 16.9991 38.4727C16.9286 38.9132 16.8641 39.3309 16.8057 39.7315V39.7315C16.7868 39.8699 16.9776 39.9205 17.0298 39.7909C17.0355 39.7766 17.0412 39.7624 17.0469 39.7481C17.6364 38.2768 18.1646 36.7795 18.6417 35.2637C19.1187 33.7479 19.5449 32.2138 19.9268 30.6671C20.3086 29.1206 20.6471 27.5616 20.9493 25.9942C21.2515 24.4267 21.5173 22.8507 21.754 21.2686C21.9907 19.6854 22.1966 18.1025 22.3809 16.5079C22.4188 16.1797 22.4509 15.8641 22.4756 15.5411C22.5002 15.2204 22.5167 14.9008 22.5245 14.5831C22.5322 14.2652 22.5307 13.9486 22.5176 13.6348V13.6348C22.5149 13.5699 22.4258 13.5636 22.4124 13.6272C22.3966 13.7021 22.3807 13.7769 22.3643 13.8516ZM123.409 30.5733C123.209 31.1973 122.994 31.8624 122.76 32.5753C122.642 32.9325 122.527 33.2769 122.414 33.6114C122.038 34.7238 121.679 35.7406 121.324 36.6309V36.6309C121.275 36.7512 121.351 36.8856 121.48 36.9058C121.59 36.9234 121.701 36.941 121.812 36.9585C122.06 36.9978 122.294 36.8345 122.343 36.5887C122.347 36.5715 122.35 36.5544 122.354 36.5372C122.527 35.6798 122.705 34.8125 122.871 33.9395C123.015 33.1826 123.166 32.4217 123.317 31.668C123.471 30.9044 123.628 30.1462 123.784 29.4014C123.786 29.3947 123.787 29.3876 123.788 29.3809C123.667 29.7617 123.542 30.1591 123.409 30.5733ZM42.7588 32.0069C42.7636 32.0122 42.7687 32.0176 42.7725 32.0137C42.7769 32.0086 42.784 32.0318 42.7901 32.0548C42.7943 32.0704 42.7983 32.0862 42.8018 32.0928C42.8054 32.0993 42.8098 32.0867 42.8135 32.0743C42.8179 32.0595 42.8217 32.0453 42.8252 32.0645C42.8258 32.0678 42.8264 32.0852 42.8272 32.1075C42.8274 32.113 42.828 32.119 42.8282 32.1251C42.8289 32.1454 42.8299 32.1689 42.8309 32.1907C42.831 32.1939 42.8335 32.1963 42.8366 32.1969V32.1969C42.8406 32.1976 42.8447 32.195 42.8447 32.1909C42.8447 32.1901 42.8447 32.1893 42.8448 32.1886L42.8516 32.0723C42.8543 32.0436 42.8578 32.0333 42.8614 32.0655L42.8666 32.1638C42.8677 32.1848 42.8719 32.188 42.8741 32.1671V32.1671C42.8768 32.1419 42.8797 32.1137 42.8829 32.1397C42.8831 32.1415 42.8827 32.1437 42.8829 32.1456C42.8841 32.1559 42.886 32.1689 42.8879 32.1878C42.8919 32.2266 42.9036 32.2646 42.9219 32.2989V32.2989C42.9384 32.3304 42.9546 32.3665 42.9708 32.4024C42.9779 32.4202 42.9871 32.4962 42.9922 32.6173C42.9977 32.7387 43 32.8953 43.0001 33.0567C43 33.2182 42.9977 33.3746 42.9922 33.4962C42.9871 33.6171 42.9779 33.6929 42.9708 33.711C42.9598 33.7364 42.9472 33.7621 42.9359 33.786C42.9331 33.792 42.9312 33.7983 42.9297 33.8048V33.8048C42.9247 33.8274 42.9198 33.8727 42.9151 33.918C42.9141 33.9285 42.9132 33.9391 42.9122 33.9493C42.9044 34.0261 42.8881 33.9955 42.8792 33.978C42.879 33.9778 42.879 33.9774 42.879 33.9771V33.9771C42.879 33.9768 42.8789 33.9765 42.8787 33.9762C42.8768 33.9727 42.8742 33.9719 42.8721 33.9708C42.8673 33.9682 42.8605 33.9635 42.8479 33.9274C42.8456 33.9207 42.8381 33.917 42.8311 33.9171V33.9171C42.83 33.9171 42.8282 33.9171 42.8272 33.9171C42.7807 33.9136 42.7333 33.8523 42.6868 33.7783C42.6861 33.7772 42.6848 33.7769 42.6836 33.7774V33.7774C42.6742 33.7835 42.6631 33.7902 42.6544 33.7803C42.6519 33.7774 42.6496 33.7728 42.6475 33.7667V33.7667C42.6262 33.7029 42.6046 33.638 42.5633 33.585C42.5439 33.56 42.5244 33.54 42.5049 33.5284C42.4972 33.5238 42.4892 33.5203 42.4815 33.5186C42.4774 33.5178 42.4729 33.5177 42.4688 33.5177V33.5177C42.447 33.5178 42.4311 33.536 42.4244 33.5567C42.4219 33.5646 42.4194 33.5725 42.417 33.5802C42.4091 33.606 42.4024 33.6293 42.3965 33.6368C42.3826 33.6546 42.3663 33.6258 42.3545 33.6046V33.6046C42.3518 33.5997 42.3449 33.5992 42.3413 33.6035C42.3387 33.6066 42.336 33.6098 42.3334 33.613C42.3286 33.6189 42.3191 33.616 42.3184 33.6085V33.6085C42.3155 33.5773 42.3122 33.5574 42.3086 33.545C42.3024 33.5237 42.2944 33.5245 42.2842 33.5255C42.2775 33.5261 42.2696 33.5265 42.2608 33.5206C42.2551 33.5158 42.2517 33.4825 42.2491 33.4552C42.2483 33.447 42.2478 33.4388 42.2471 33.4327C42.2447 33.412 42.2423 33.4352 42.2393 33.462C42.2354 33.4967 42.2307 33.5379 42.2247 33.5011C42.2055 33.3805 42.1958 33.4615 42.1895 33.5235C42.1876 33.5416 42.1854 33.5583 42.1836 33.5675C42.1781 33.5971 42.1696 33.5677 42.1631 33.5274C42.1581 33.4961 42.1488 33.5274 42.1417 33.5675C42.1402 33.5761 42.1381 33.5803 42.1358 33.5821C42.1341 33.5833 42.1319 33.5839 42.1299 33.5841C42.1253 33.5844 42.1197 33.5852 42.1143 33.6016C42.1002 33.6447 42.0918 33.666 42.086 33.6827C42.0843 33.6874 42.0826 33.6919 42.0811 33.6964C42.0761 33.7106 42.0688 33.7226 42.0626 33.7344V33.7344C42.0584 33.7429 42.0388 33.7376 42.0384 33.7281C42.0268 33.4583 42.0015 34.7254 42.0069 32.7755C42.007 32.608 42.0067 32.4896 42.0079 32.4083C42.008 32.3706 42.0077 32.3319 42.0078 32.2923C42.0079 32.291 42.0085 32.2894 42.0087 32.2907V32.2907C42.0088 32.2922 42.0102 32.2931 42.0103 32.2917C42.0183 32.1098 42.0342 32.578 42.0417 32.3409C42.0419 32.3337 42.0444 32.326 42.0492 32.3205C42.0667 32.3001 42.0843 32.2864 42.1016 32.2862C42.1132 32.2862 42.1239 32.2893 42.1358 32.294V32.294C42.1419 32.2971 42.1492 32.2938 42.1511 32.2873C42.1612 32.2519 42.1717 32.2208 42.1788 32.2091C42.1853 32.1986 42.1902 32.22 42.1944 32.2384C42.1957 32.2441 42.1971 32.2496 42.1985 32.2537C42.2005 32.2594 42.2053 32.2587 42.209 32.254V32.254C42.2185 32.2417 42.2343 32.222 42.2491 32.2608C42.2557 32.2783 42.2624 32.3129 42.2696 32.3458C42.2798 32.393 42.29 32.4374 42.295 32.4239C42.2994 32.4116 42.3039 32.4112 42.3086 32.4161C42.3128 32.4206 42.3174 32.4294 42.3213 32.4376C42.3296 32.4546 42.3368 32.4699 42.3409 32.4425C42.3456 32.4101 42.3495 32.423 42.3555 32.4425C42.3597 32.4558 42.3653 32.4724 42.3721 32.4796C42.3804 32.4873 42.3868 32.5109 42.3917 32.5303C42.3986 32.5578 42.4034 32.5781 42.4112 32.5401C42.4198 32.4985 42.4295 32.4721 42.4366 32.4844C42.4398 32.4904 42.4435 32.4889 42.4473 32.4874C42.4524 32.4853 42.458 32.4842 42.4629 32.4991C42.467 32.5118 42.4707 32.5434 42.4737 32.5714C42.4744 32.5777 42.4746 32.5841 42.4751 32.5899C42.4753 32.5931 42.4783 32.5955 42.4815 32.5948V32.5948V32.5948C42.4839 32.5943 42.4856 32.5922 42.4859 32.5898C42.4863 32.5858 42.4869 32.5815 42.4874 32.5772C42.4902 32.5478 42.4937 32.5112 42.4981 32.4932C42.505 32.4655 42.5113 32.4832 42.5176 32.502C42.5226 32.5167 42.5283 32.5317 42.5342 32.5264C42.5382 32.5224 42.5425 32.5097 42.5469 32.4971C42.5537 32.478 42.5608 32.4592 42.5655 32.4708C42.5672 32.4753 42.5689 32.4958 42.5704 32.5157V32.5157C42.5704 32.5169 42.572 32.5175 42.5727 32.5165C42.5826 32.503 42.5927 32.4882 42.6026 32.4729C42.6039 32.4708 42.6048 32.4686 42.6052 32.4662C42.606 32.4622 42.6067 32.458 42.6075 32.4542C42.6123 32.4298 42.6171 32.4058 42.6202 32.3721C42.6234 32.3358 42.6319 32.3144 42.6407 32.2921C42.6453 32.2804 42.6502 32.2686 42.6544 32.254C42.6554 32.2504 42.6563 32.2462 42.6573 32.2423C42.6601 32.2305 42.6633 32.2513 42.6661 32.2725C42.6686 32.2919 42.671 32.3116 42.6739 32.3077C42.6754 32.3052 42.6771 32.2963 42.6788 32.2872C42.6802 32.2793 42.682 32.2709 42.6836 32.2657C42.6852 32.2609 42.6881 32.272 42.6924 32.2862V32.2862C42.6959 32.2977 42.7103 32.2995 42.7171 32.2896C42.7192 32.2867 42.7212 32.2838 42.7233 32.281C42.7254 32.278 42.7268 32.2745 42.7272 32.2708C42.7288 32.2535 42.7304 32.2313 42.7315 32.2042C42.7324 32.1826 42.7327 32.1563 42.7335 32.13C42.7345 32.0941 42.7359 32.057 42.7374 32.0274C42.7385 32.0044 42.7403 31.9956 42.7413 32.005C42.7417 32.0095 42.742 32.0181 42.7422 32.0255C42.7423 32.0261 42.7423 32.0268 42.7423 32.0274C42.7424 32.0297 42.7441 32.0297 42.7442 32.0274V32.0274C42.7444 32.0234 42.7445 32.0189 42.7447 32.0148C42.7452 32.0044 42.7519 31.9992 42.7588 32.0069V32.0069Z" fill="black"/>
</svg>
